#!OML:ASF F:\VICON\USERDATA\INSTALL\Justin_Nancy\Justin_Nancy.ASF
:FULLY-SPECIFIED
:DEGREES
85
root -0.463599 17.7436 21.7315 6.679 -6.0577 5.13367
lowerback 5.71014 -2.40018 -6.38945
upperback -2.92464 -3.56195 3.38215
thorax -5.67901 -1.44755 7.53972
lowerneck -23.2374 -0.473071 -8.20653
upperneck 18.3881 1.03136 4.79322
head 9.56826 0.460008 3.17939
rclavicle 3.37934e-014 -3.02153e-014
rhumerus -73.8824 8.06064 -89.2127
rradius 113.475
rwrist -13.4738
rhand -9.91897 28.9654
rfingers 7.12502
rthumb 16.0617 -0.388863
lclavicle 3.37934e-014 -3.02153e-014
lhumerus -31.6622 -8.91185 91.4976
lradius 135.615
lwrist 34.0613
lhand -11.5897 4.5712
lfingers 7.12502
lthumb 14.4524 34.0479
rfemur -44.6748 -4.42636 18.5435
rtibia 49.9468
rfoot -1.71365 -2.86531
rtoes -23.6375
lfemur 18.6708 -4.53498 -33.8338
ltibia 24.0254
lfoot 25.1216 -1.7965
ltoes -1.38333
86
root -0.472987 17.7698 22.3353 6.75757 -6.29775 5.60247
lowerback 5.91371 -2.40344 -6.82463
upperback -3.07856 -3.61777 3.39411
thorax -5.92724 -1.44014 7.8291
lowerneck -23.4892 -0.390312 -8.14608
upperneck 18.4999 1.20556 4.54046
head 9.64228 0.51395 3.11035
rclavicle -6.22196e-014 -9.54166e-015
rhumerus -73.9673 8.04442 -89.0717
rradius 114.094
rwrist -13.468
rhand -9.72926 28.9776
rfingers 7.12502
rthumb 16.2443 -0.361829
lclavicle -6.22196e-014 -9.54166e-015
lhumerus -32.0667 -9.54246 91.6718
lradius 136.082
lwrist 32.1963
lhand -11.5472 4.23195
lfingers 7.12502
lthumb 14.4933 33.7058
rfemur -43.9297 -3.92662 18.0944
rtibia 44.1626
rfoot -0.26119 -2.32965
rtoes -21.7218
lfemur 19.4084 -5.17622 -34.7487
ltibia 24.9065
lfoot 24.7777 -1.76704
ltoes 1.33272
87
root -0.480803 17.7901 22.9433 6.53916 -6.38036 6.14631
lowerback 6.16554 -2.41564 -7.1947
upperback -3.03709 -3.68863 3.27707
thorax -6.00238 -1.45948 7.93677
lowerneck -23.8615 -0.339798 -8.1249
upperneck 18.665 1.31268 4.48613
head 9.75935 0.557172 3.11177
rclavicle 2.5842e-015 1.74931e-014
rhumerus -73.8355 7.8898 -89.0482
rradius 114.597
rwrist -13.453
rhand -9.57395 29.1011
rfingers 7.12502
rthumb 16.3939 -0.226129
lclavicle 2.5842e-015 1.74931e-014
lhumerus -32.3742 -10.0937 91.7701
lradius 136.179
lwrist 30.9662
lhand -11.5082 3.96639
lfingers 7.12502
lthumb 14.5309 33.4375
rfemur -42.6966 -3.7058 17.5978
rtibia 38.6287
rfoot 0.673594 -2.42226
rtoes -22.5029
lfemur 20.2044 -5.90562 -35.7574
ltibia 26.0651
lfoot 25.5224 -2.57665
ltoes 2.25871
88
root -0.48804 17.7947 23.5436 6.2982 -6.41596 6.80243
lowerback 6.24173 -2.39153 -7.61734
upperback -2.889 -3.70802 3.05951
thorax -5.87525 -1.4679 7.94353
lowerneck -24.0638 -0.43775 -8.20873
upperneck 18.5351 1.19373 4.62246
head 9.75536 0.516781 3.15641
rclavicle -4.55217e-014 -1.59028e-015
rhumerus -73.3982 7.58964 -89.0133
rradius 114.85
rwrist -13.2626
rhand -9.54146 29.3761
rfingers 7.12502
rthumb 16.4252 0.0514909
lclavicle -4.55217e-014 -1.59028e-015
lhumerus -32.8206 -10.6707 91.906
lradius 136.131
lwrist 30.3841
lhand -11.7638 4.36708
lfingers 7.12502
lthumb 14.2846 33.8558
rfemur -41.3979 -3.57671 16.9961
rtibia 33.6151
rfoot 1.31413 -3.1481
rtoes -23.7057
lfemur 20.6843 -6.68921 -36.8661
ltibia 27.5474
lfoot 26.6078 -3.46087
ltoes 3.76108
89
root -0.498822 17.7732 24.1466 5.92544 -6.37957 7.46594
lowerback 6.30357 -2.3587 -8.04291
upperback -2.64392 -3.71463 2.78538
thorax -5.64196 -1.48093 7.88401
lowerneck -24.098 -0.590027 -8.15672
upperneck 18.1049 0.954477 4.69857
head 9.62548 0.428331 3.13063
rclavicle -7.45443e-015 -2.54444e-014
rhumerus -72.7141 7.15847 -89.0336
rradius 114.978
rwrist -13.0365
rhand -9.70331 29.2146
rfingers 7.12502
rthumb 16.2693 -0.122823
lclavicle -7.45443e-015 -2.54444e-014
lhumerus -33.4012 -11.1936 92.1456
lradius 135.675
lwrist 30.0464
lhand -12.4826 4.65898
lfingers 7.12502
lthumb 13.5919 34.1953
rfemur -39.8832 -3.50819 16.3972
rtibia 29.2026
rfoot 1.64234 -4.25731
rtoes -23.6036
lfemur 21.0286 -7.05355 -37.7927
ltibia 29.6808
lfoot 26.7215 -4.90888
ltoes 6.47634
90
root -0.510014 17.7455 24.7514 5.4833 -6.3692 7.79684
lowerback 6.48723 -2.30769 -8.09965
upperback -2.36721 -3.67021 2.53826
thorax -5.47225 -1.47987 7.64538
lowerneck -24.1817 -0.680861 -8.05566
upperneck 17.6639 0.772034 4.84466
head 9.49641 0.377922 3.13076
rclavicle 7.55382e-015 6.36111e-015
rhumerus -71.9102 6.74489 -89.1886
rradius 114.951
rwrist -12.7044
rhand -9.84029 29.1022
rfingers 7.12502
rthumb 16.1374 -0.245959
lclavicle 7.55382e-015 6.36111e-015
lhumerus -34.068 -11.3734 92.3301
lradius 134.663
lwrist 29.52
lhand -12.549 4.20353
lfingers 7.12502
lthumb 13.5279 33.7441
rfemur -38.3718 -3.48213 16.2485
rtibia 25.4861
rfoot 1.89468 -5.1989
rtoes -24.2704
lfemur 21.1104 -7.11563 -38.3002
ltibia 32.514
lfoot 26.3529 -6.87931
ltoes 6.68156
91
root -0.52122 17.7289 25.3497 5.18283 -6.21355 7.40945
lowerback 6.82908 -2.29221 -7.52233
upperback -2.1832 -3.61766 2.53265
thorax -5.5116 -1.47816 7.3189
lowerneck -24.211 -0.741499 -7.99563
upperneck 17.3375 0.628503 5.04468
head 9.39569 0.345711 3.16439
rclavicle 4.7112e-014 3.18055e-015
rhumerus -71.0904 6.49047 -89.299
rradius 114.835
rwrist -12.409
rhand -9.80487 29.0962
rfingers 7.12502
rthumb 16.1715 -0.249186
lclavicle 4.7112e-014 3.18055e-015
lhumerus -34.7388 -11.0282 92.3209
lradius 133.295
lwrist 28.6701
lhand -11.3389 3.93033
lfingers 7.12502
lthumb 14.694 33.3896
rfemur -36.968 -3.46945 16.9544
rtibia 22.5065
rfoot 2.34268 -5.81406
rtoes -24.7588
lfemur 20.5961 -7.29937 -37.9394
ltibia 36.0181
lfoot 25.9848 -8.34104
ltoes 6.07378
92
root -0.53363 17.6974 25.9429 4.92176 -6.12237 6.85708
lowerback 7.20287 -2.26012 -6.845
upperback -2.07475 -3.53032 2.59362
thorax -5.65651 -1.45355 7.00887
lowerneck -24.0605 -0.86715 -7.93773
upperneck 17.0228 0.41105 5.11958
head 9.27509 0.26145 3.14172
rclavicle -9.74045e-015 1.11319e-014
rhumerus -70.3418 6.34868 -89.3979
rradius 114.707
rwrist -12.0534
rhand -9.85838 29.1088
rfingers 7.12502
rthumb 16.12 -0.240785
lclavicle -9.74045e-015 1.11319e-014
lhumerus -35.7374 -11.5938 93.0051
lradius 132.235
lwrist 30.6426
lhand -14.678 5.23648
lfingers 7.12502
lthumb 11.4753 34.9024
rfemur -35.5604 -3.37099 17.8616
rtibia 20.153
rfoot 3.25772 -6.02355
rtoes -25.0098
lfemur 19.583 -7.41916 -37.3044
ltibia 40.1949
lfoot 25.4704 -8.62986
ltoes 6.78862
93
root -0.545118 17.6419 26.524 4.50097 -6.26447 6.24082
lowerback 7.65822 -2.10942 -6.15503
upperback -1.82695 -3.27898 2.66792
thorax -5.72454 -1.35565 6.68686
lowerneck -24.1136 -1.00395 -7.93798
upperneck 16.8005 0.205397 5.23767
head 9.22116 0.183594 3.14994
rclavicle 5.06901e-014 -2.38542e-014
rhumerus -69.2708 6.20026 -89.4233
rradius 114.501
rwrist -11.5489
rhand -10.0808 28.816
rfingers 7.12502
rthumb 15.9058 -0.550814
lclavicle 5.06901e-014 -2.38542e-014
lhumerus -36.5246 -11.7576 93.567
lradius 130.734
lwrist 31.7982
lhand -16.6629 5.89676
lfingers 7.12502
lthumb 9.56065 35.6598
rfemur -33.9808 -3.34138 18.9958
rtibia 18.4064
rfoot 4.39498 -5.56533
rtoes -25.5819
lfemur 18.3305 -7.04432 -36.4284
ltibia 44.8997
lfoot 24.7399 -8.57593
ltoes 8.2728
94
root -0.561562 17.5664 27.0898 3.98381 -6.50311 5.61793
lowerback 8.34577 -1.8846 -5.53727
upperback -1.61485 -2.94339 2.7295
thorax -5.96839 -1.20461 6.39455
lowerneck -23.9398 -1.08348 -8.03694
upperneck 16.5812 0.0594804 5.5116
head 9.12519 0.142711 3.23563
rclavicle 3.06128e-014 -1.27222e-014
rhumerus -68.1005 6.05222 -89.4766
rradius 114.075
rwrist -11.0072
rhand -10.2882 28.9157
rfingers 7.12502
rthumb 15.7061 -0.466949
lclavicle 3.06128e-014 -1.27222e-014
lhumerus -37.272 -11.5374 93.9052
lradius 128.823
lwrist 32.1734
lhand -17.0196 6.05218
lfingers 7.12502
lthumb 9.21647 35.8308
rfemur -32.5199 -3.3393 20.2396
rtibia 17.6485
rfoot 5.2653 -4.64502
rtoes -26.7549
lfemur 16.8386 -6.34053 -35.3006
ltibia 49.9007
lfoot 23.988 -8.72283
ltoes 8.86304
95
root -0.584328 17.4769 27.653 3.31545 -6.79269 4.97607
lowerback 9.21129 -1.60894 -4.97324
upperback -1.37821 -2.54387 2.80502
thorax -6.28775 -1.01828 6.14149
lowerneck -23.7496 -1.21583 -8.14588
upperneck 16.4438 -0.144253 5.72422
head 9.06042 0.0650298 3.29471
rclavicle -3.00165e-014 2.38542e-014
rhumerus -66.8731 5.89859 -89.5416
rradius 113.646
rwrist -10.6373
rhand -10.4959 28.911
rfingers 7.12502
rthumb 15.506 -0.487208
lclavicle -3.00165e-014 2.38542e-014
lhumerus -37.6657 -10.3117 93.4242
lradius 126.142
lwrist 29.285
lhand -11.8095 5.24474
lfingers 7.12502
lthumb 14.2406 34.7365
rfemur -31.3693 -3.52147 21.5521
rtibia 18.1767
rfoot 5.86015 -2.9321
rtoes -27.939
lfemur 15.4003 -5.35076 -33.9507
ltibia 54.9774
lfoot 22.8926 -9.00346
ltoes 6.72917
96
root -0.603713 17.3822 28.2159 2.59378 -7.08243 4.42162
lowerback 10.0024 -1.35895 -4.46191
upperback -0.98044 -2.17537 2.8243
thorax -6.38212 -0.859819 5.84378
lowerneck -23.8527 -1.44623 -8.19171
upperneck 16.2204 -0.462779 5.87454
head 9.02556 -0.065307 3.30639
rclavicle 1.90833e-014 -1.59028e-014
rhumerus -65.4141 5.86008 -89.6914
rradius 113.288
rwrist -10.4227
rhand -10.7108 28.8593
rfingers 7.12502
rthumb 15.2991 -0.554866
lclavicle 1.90833e-014 -1.59028e-014
lhumerus -38.097 -10.1234 93.4887
lradius 123.844
lwrist 28.8605
lhand -12.5236 4.71959
lfingers 7.12502
lthumb 13.5524 34.2585
rfemur -30.7423 -3.97318 22.7723
rtibia 20.2185
rfoot 6.01012 -0.344003
rtoes -27.2124
lfemur 13.8986 -4.26434 -32.5959
ltibia 60.0002
lfoot 21.9219 -8.97093
ltoes 3.27731
97
root -0.61853 17.2693 28.7763 1.8998 -7.46874 4.24128
lowerback 10.523 -1.06949 -4.17989
upperback -0.512637 -1.78228 2.6271
thorax -6.24469 -0.694225 5.42107
lowerneck -24.0125 -1.64095 -8.0806
upperneck 16.036 -0.785652 6.04235
head 9.01427 -0.185579 3.29909
rclavicle 4.69132e-014 -2.70347e-014
rhumerus -63.5688 5.67196 -89.9997
rradius 112.681
rwrist -10.4067
rhand -10.8268 28.7671
rfingers 7.12502
rthumb 15.1873 -0.655498
lclavicle 4.69132e-014 -2.70347e-014
lhumerus -38.4352 -10.101 93.4106
lradius 121.759
lwrist 28.4485
lhand -13.4664 5.57886
lfingers 7.12502
lthumb 12.6436 35.1762
rfemur -30.6051 -4.40524 23.5333
rtibia 23.6142
rfoot 4.93816 3.18879
rtoes -23.1245
lfemur 12.2258 -3.0766 -31.5629
ltibia 64.9479
lfoot 21.484 -8.20074
ltoes 2.96322
98
root -0.639772 17.1511 29.3385 1.30689 -7.91598 4.56196
lowerback 10.7828 -0.769069 -4.43301
upperback -0.119035 -1.44247 2.27996
thorax -6.01776 -0.540463 5.14221
lowerneck -23.9798 -1.77818 -7.97141
upperneck 15.755 -1.05133 6.25574
head 8.93292 -0.275914 3.31283
rclavicle -2.3556e-014 1.66979e-014
rhumerus -61.6094 5.68443 -90.4105
rradius 111.944
rwrist -10.5443
rhand -11.1604 28.9183
rfingers 7.12502
rthumb 14.866 -0.52837
lclavicle -2.3556e-014 1.66979e-014
lhumerus -38.7963 -9.88273 93.1149
lradius 119.485
lwrist 27.1684
lhand -13.2822 6.5032
lfingers 7.12502
lthumb 12.8212 36.0895
rfemur -30.8242 -4.51476 23.639
rtibia 27.7378
rfoot 3.16562 6.68698
rtoes 0.959676
lfemur 10.3011 -1.77445 -30.8875
ltibia 69.7871
lfoot 21.399 -7.18598
ltoes 5.59964
